<?xml version="1.0" encoding="UTF-8"?>
<svg id="_Слой_1" data-name="Слой 1" xmlns="http://www.w3.org/2000/svg" viewBox="0 0 1771 2008.4">
  <defs>
    <style>
      .cls-1 {
        fill: #fff;
      }

      .cls-2 {
        fill: #1773b7;
      }

      .cls-3 {
        fill: #ebebeb;
      }

      .cls-4 {
        fill: #35aadd;
      }
    </style>
  </defs>
  <path class="cls-2" d="M161.2,1807.7L0,0h1771l-161.4,1807.4-725.2,201-723.2-200.7Z"/>
  <path class="cls-4" d="M885.5,1854.8l586-162.5,137.8-1544.5h-723.8v1707Z"/>
  <path class="cls-1" d="M885.5,802.7h293.4l20.2-227h-313.6v-221.6h556l-5.3,59.5-54.5,611h-496.2v-221.9Z"/>
  <path class="cls-3" d="M886.7,1378.5h-1l-246.9-66.7-15.8-176.8h-222.4l31.1,348.1,454.2,126.4h1.3v-231h-.5Z"/>
  <path class="cls-1" d="M1160.1,1014.9l-26.7,296.7-247.3,66.7v231l454.5-126,3.3-37.5,38.6-431h-222.4v.1Z"/>
  <path class="cls-3" d="M886.3,354.1v221.7H350.9l-4.6-49.8-10.1-112.4-5.3-59.5h555.4ZM885.5,802.7v221.7h-244.1l-4.3-49.8-10.1-112.4-5.3-59.5h263.8Z"/>
</svg>