<?xml version="1.0" encoding="UTF-8"?>
<svg id="_Слой_1" data-name="Слой 1" xmlns="http://www.w3.org/2000/svg" viewBox="0 0 1771 2008.4">
  <defs>
    <style>
      .cls-1 {
        fill: #fff;
      }

      .cls-2 {
        fill: #ec662b;
      }

      .cls-3 {
        fill: #ebebeb;
      }

      .cls-4 {
        fill: #e44e28;
      }
    </style>
  </defs>
  <path class="cls-4" d="M1768.84,2.39l-160.95,1803.05-723.47,200.56-721.48-200.29L2.16,2.39h1766.69Z"/>
  <path class="cls-2" d="M885.5,1852.7l584.6-162.07,137.54-1540.79h-722.14v1702.86Z"/>
  <path class="cls-3" d="M572.62,592.19h312.88v-221.17H330.91l5.29,59.34,54.36,609.48h494.94v-221.17h-292.67l-20.21-226.48ZM622.47,1150.43h-222.02l30.98,347.27,453.05,125.77,1.02-.28v-230.11l-.97.25-246.32-66.51-15.75-176.39Z"/>
  <path class="cls-1" d="M884.74,1039.84h272.35l-25.68,286.85-246.67,66.57v230.1l453.41-125.66,3.33-37.36,51.98-582.28,5.39-59.39h-514.1v221.17ZM884.74,591.65v.54h534.23l4.43-49.71,10.08-112.12,5.29-59.34h-554.03v220.63Z"/>
</svg>