<svg fill="none" viewBox="0 0 1773 2501" xmlns="http://www.w3.org/2000/svg" xmlns:xlink="http://www.w3.org/1999/xlink"><clipPath id="a"><path d="m0 .799805h1773v2500h-1773z"/></clipPath><g clip-path="url(#a)"><path d="m1769.77 490.869-160.95 1803.051-723.474 200.56-721.482-200.29-160.78233-1803.321z" fill="#e44d26"/><path d="m886.427 2341.17 584.603-162.07 137.54-1540.786h-722.143z" fill="#f16529"/><path d="m573.546 1080.66h312.881v-221.169h-554.592l5.291 59.335 54.363 609.484h494.938v-221.17h-292.667zm49.847 558.24h-222.022l30.984 347.27 453.054 125.77 1.018-.28v-230.11l-.97.25-246.316-66.51z" fill="#ebebeb"/><g fill="#fff"><path d="m167.452.799805h112.396v111.046195h102.818v-111.046195h112.403v336.274195h-112.396v-112.604h-102.818v112.604h-112.397zm475.415 111.516195h-98.933v-111.516195h310.346v111.516195h-98.996v224.758h-112.396v-224.758zm260.665-111.516195h117.198l72.09 118.158195 72.02-118.158195h117.24v336.274195h-111.93v-166.676l-77.33 119.564h-1.94l-77.38-119.564v166.676h-109.968zm434.488 0h112.43v225.124195h158.06v111.15h-270.5v-336.274195z"/><path d="m885.665 1528.31h272.345l-25.68 286.85-246.672 66.57v230.1l453.412-125.66 3.33-37.36 51.98-582.28 5.39-59.39h-514.105zm0-448.19v.54h534.235l4.43-49.71 10.08-112.124 5.29-59.335h-554.035z"/></g></g></svg>