<?xml version="1.0" encoding="UTF-8"?>
<svg id="_Слой_1" data-name="Слой 1" xmlns="http://www.w3.org/2000/svg" viewBox="0 0 1771 2008.4">
  <defs>
    <style>
      .cls-1 {
        fill: #fff;
      }

      .cls-2 {
        fill: #ebebeb;
      }

      .cls-3 {
        fill: #f1bf23;
      }

      .cls-4 {
        fill: #e6a429;
      }
    </style>
  </defs>
  <path class="cls-4" d="M1771,1.98H0l166.03,1800.42,719.37,204.02,719.37-204.02L1771,1.98Z"/>
  <path class="cls-3" d="M885.4,148.67v1705.19l582.85-165.13,141.8-1540.05h-724.65Z"/>
  <path class="cls-1" d="M1349.09,369.54H452.92l-62.42,674.1,1.3-4.19h761.35l-24.83,285.19-242.91,69.9-246.5-71-14.76-172.61h-223.77l31.91,344.93,453.12,128.64,453.32-128.64,62.42-676.99h-808.02l10.37-225.56h560.62l8.38,129.24h225.76l-49.16-353Z"/>
  <path class="cls-2" d="M885.6,369.54h-432.68l-62.42,674.1,1.3-4.19h493.81v-219.88h-260.96l10.37-225.56h250.59v-224.47ZM624.64,1150.94h-224.27l31.91,344.73,453.12,128.44v-229.35l-246.5-71.2-14.26-172.61Z"/>
</svg>