<svg fill="none" viewBox="0 0 1776 2501" xmlns="http://www.w3.org/2000/svg" xmlns:xlink="http://www.w3.org/1999/xlink"><clipPath id="a"><path d="m0 .799805h1776v2500h-1776z"/></clipPath><g clip-path="url(#a)"><path d="m1776 490.7h-1776l166.5 1805.5 721.4 204.6 721.4-204.6z" fill="#e6a329"/><path d="m887.9 637.8v1710l584.5-165.6 142.2-1544.4z" fill="#f1bf22"/><path d="m1352.9 859.3h-898.7l-62.6 676 1.3-4.2h763.5l-24.9 286-243.6 70.1-247.2-71.2-14.8-173.1h-224.4l32 345.9 454.4 129 454.6-129 62.6-678.9h-810.3l10.4-226.2h562.2l8.4 129.6h226.4z" fill="#fff"/><path d="m888.1 859.3h-433.9l-62.6 676 1.3-4.2h495.2v-220.5h-261.7l10.4-226.2h251.3zm-261.7 783.6h-224.9l32 345.7 454.4 128.8v-230l-247.2-71.4z" fill="#ebebeb"/><path d="m715.2 224.4h-158.1v113.5h271.2v-337.100195h-113.1zm503.6-221.8002h-275.6v118.0002c36.8 36.8 56 54.5 110.2 107.8h-110.2v107.6h275.6v-107.4l-110.2-107.8h110.2z" fill="#fff"/></g></svg>