<?xml version="1.0" encoding="UTF-8"?>
<svg id="_Слой_1" data-name="Слой 1" xmlns="http://www.w3.org/2000/svg" viewBox="0 0 453 350">
  <defs>
    <style>
      .cls-1 {
        fill: #e5a328;
      }

      .cls-2 {
        fill: #e34d27;
      }

      .cls-3 {
        fill: #f0be22;
      }

      .cls-4 {
        fill: #fff;
      }

      .cls-5 {
        fill: #33a8dc;
      }

      .cls-6 {
        fill: #eb652b;
      }

      .cls-7 {
        fill: #1573b6;
      }

      .cls-8 {
        fill: #eaeaea;
      }
    </style>
  </defs>
  <g>
    <path class="cls-7" d="M20.48,323.25L0,93.63h224.96l-20.5,229.59-92.12,25.53-91.86-25.49Z"/>
    <path class="cls-5" d="M112.48,329.24l74.44-20.64,17.5-196.19h-91.94v216.83Z"/>
    <path class="cls-4" d="M112.48,195.59h37.27l2.57-28.83h-39.84v-28.15h70.63l-.67,7.56-6.92,77.61h-63.03v-28.19Z"/>
    <path class="cls-8" d="M112.63,268.73h-.13l-31.36-8.47-2.01-22.46h-28.25l3.95,44.22,57.7,16.06h.17v-29.34h-.06Z"/>
    <path class="cls-4" d="M147.36,222.55l-3.39,37.69-31.41,8.47v29.34l57.73-16.01.42-4.76,4.9-54.75h-28.25Z"/>
    <path class="cls-8" d="M112.58,138.61v28.16H44.57l-.58-6.33-1.28-14.28-.67-7.56h70.55ZM112.48,195.59v28.16h-31.01l-.55-6.33-1.28-14.28-.67-7.56h33.51Z"/>
  </g>
  <g>
    <path class="cls-1" d="M453,93.63h-225.41l21.13,229.15,91.56,25.97,91.56-25.97,21.16-229.15Z"/>
    <path class="cls-3" d="M340.28,112.3v217.03l74.18-21.02,18.05-196.01h-92.23Z"/>
    <path class="cls-4" d="M399.3,140.41h-114.06l-7.95,85.8.16-.53h96.9l-3.16,36.3-30.92,8.9-31.37-9.04-1.88-21.97h-28.48l4.06,43.9,57.67,16.37,57.7-16.37,7.95-86.16h-102.84l1.32-28.71h71.35l1.07,16.45h28.73l-6.26-44.93Z"/>
    <path class="cls-8" d="M340.31,140.41h-55.07l-7.95,85.8.16-.53h62.85v-27.99h-33.21l1.32-28.71h31.89v-28.57ZM307.09,239.86h-28.54l4.06,43.88,57.67,16.35v-29.19l-31.37-9.06-1.81-21.97Z"/>
  </g>
  <g>
    <path class="cls-2" d="M340.07,0l-20.49,229.58-92.12,25.54-91.87-25.5L115.12,0h224.95Z"/>
    <path class="cls-6" d="M227.59,235.6l74.44-20.64,17.51-196.19h-91.95v216.82Z"/>
    <path class="cls-8" d="M187.75,75.1h39.84v-28.16h-70.62l.67,7.56,6.92,77.61h63.02v-28.16h-37.27l-2.57-28.84ZM194.1,146.18h-28.27l3.95,44.22,57.69,16.01.13-.04v-29.3l-.12.03-31.36-8.47-2.01-22.46Z"/>
    <path class="cls-4" d="M227.5,132.1h34.68l-3.27,36.52-31.41,8.48v29.3l57.73-16,.42-4.76,6.62-74.14.69-7.56h-65.46v28.16ZM227.5,75.03v.07h68.02l.56-6.33,1.28-14.28.67-7.56h-70.54v28.09Z"/>
  </g>
</svg>